<svg id="svg" version="1.1" xmlns="http://www.w3.org/2000/svg" xmlns:xlink="http://www.w3.org/1999/xlink" width="400" height="400" viewBox="0, 0, 400,400"><g id="svgg"><path id="path0" d="M288.664 114.053 C 268.189 116.684,250.043 130.490,241.683 149.800 C 237.440 159.599,238.098 162.108,246.357 167.620 C 260.728 177.210,262.022 177.182,267.200 167.175 C 276.534 149.136,288.498 141.666,301.983 145.457 C 314.704 149.033,318.854 162.366,311.727 176.759 C 306.593 187.128,301.106 193.993,269.931 229.052 C 239.062 263.768,240.886 261.415,241.308 265.969 C 241.904 272.402,247.476 283.863,250.895 285.689 L 252.600 286.600 300.000 286.715 C 351.210 286.839,349.803 286.895,351.908 284.659 C 354.101 282.328,354.998 273.912,354.077 264.300 C 353.190 255.039,354.583 255.455,323.600 255.187 C 288.525 254.882,289.184 255.675,307.451 235.772 C 327.817 213.583,336.007 202.630,342.450 188.971 C 362.176 147.154,334.210 108.201,288.664 114.053 M52.136 115.966 C 49.987 116.507,48.315 117.730,47.439 119.400 L 46.600 121.000 46.496 200.384 C 46.382 287.903,46.241 282.786,48.814 284.950 C 50.752 286.581,52.378 286.795,62.840 286.798 C 73.103 286.800,74.605 286.605,76.338 285.045 C 78.742 282.880,78.581 286.083,78.800 236.000 C 79.072 173.613,77.298 175.451,101.008 213.000 C 118.820 241.207,117.401 239.809,128.200 239.790 C 138.028 239.772,137.448 240.315,152.427 217.099 C 170.834 188.570,172.602 186.185,175.118 186.475 C 177.833 186.788,177.707 184.452,177.756 235.549 L 177.800 281.400 178.800 283.180 C 180.682 286.529,180.995 286.600,193.800 286.600 C 206.904 286.600,207.388 286.486,209.195 282.974 L 210.200 281.021 210.200 201.611 C 210.200 114.868,210.342 119.886,207.818 117.670 C 205.058 115.246,187.680 114.614,182.885 116.763 C 179.269 118.384,181.743 114.641,140.425 180.997 C 133.173 192.642,131.368 194.800,128.875 194.800 C 125.430 194.800,126.917 196.948,99.969 153.045 C 80.022 120.549,78.503 118.313,75.291 116.731 C 73.289 115.745,55.362 115.152,52.136 115.966 " stroke="none" fill="#fbfbfb" fill-rule="evenodd"></path><path id="path1" d="M4.091 3.308 C 2.281 5.128,0.800 6.928,0.800 7.308 C 0.800 7.689,0.620 8.000,0.400 8.000 C 0.134 8.000,0.000 72.267,0.000 200.000 C 0.000 327.733,0.134 392.000,0.400 392.000 C 0.620 392.000,0.800 392.319,0.800 392.709 C 0.800 393.099,2.289 394.899,4.108 396.709 L 7.417 400.000 200.017 400.000 L 392.618 400.000 395.909 396.692 C 397.719 394.872,399.200 393.072,399.200 392.692 C 399.200 392.311,399.380 392.000,399.600 392.000 C 399.866 392.000,400.000 327.733,400.000 200.000 C 400.000 72.267,399.866 8.000,399.600 8.000 C 399.380 8.000,399.200 7.681,399.200 7.291 C 399.200 6.901,397.711 5.101,395.892 3.291 L 392.583 0.000 199.983 0.000 L 7.382 0.000 4.091 3.308 M307.412 114.189 C 342.622 119.900,358.772 154.369,342.450 188.971 C 336.007 202.630,327.817 213.583,307.451 235.772 C 295.625 248.657,294.505 250.296,295.805 252.810 C 296.910 254.946,297.023 254.956,323.600 255.187 C 354.583 255.455,353.190 255.039,354.077 264.300 C 354.998 273.912,354.101 282.328,351.908 284.659 C 349.803 286.895,351.210 286.839,300.000 286.715 L 252.600 286.600 250.895 285.689 C 247.476 283.863,241.904 272.402,241.308 265.969 C 240.886 261.415,239.062 263.768,269.931 229.052 C 301.106 193.993,306.593 187.128,311.727 176.759 C 326.350 147.229,291.597 131.261,272.181 158.589 C 271.092 160.122,268.850 163.986,267.200 167.175 C 262.022 177.182,260.728 177.210,246.357 167.620 C 238.098 162.108,237.440 159.599,241.683 149.800 C 252.666 124.434,279.831 109.716,307.412 114.189 M75.291 116.731 C 78.503 118.313,80.022 120.549,99.969 153.045 C 126.917 196.948,125.430 194.800,128.875 194.800 C 131.368 194.800,133.173 192.642,140.425 180.997 C 181.743 114.641,179.269 118.384,182.885 116.763 C 187.680 114.614,205.058 115.246,207.818 117.670 C 210.342 119.886,210.200 114.868,210.200 201.611 L 210.200 281.021 209.195 282.974 C 207.388 286.486,206.904 286.600,193.800 286.600 C 180.995 286.600,180.682 286.529,178.800 283.180 L 177.800 281.400 177.756 235.549 C 177.707 184.452,177.833 186.788,175.118 186.475 C 172.602 186.185,170.834 188.570,152.427 217.099 C 137.448 240.315,138.028 239.772,128.200 239.790 C 117.401 239.809,118.820 241.207,101.008 213.000 C 86.051 189.313,84.054 186.605,81.744 186.869 C 78.874 187.197,79.024 184.690,78.800 236.000 C 78.581 286.083,78.742 282.880,76.338 285.045 C 74.605 286.605,73.103 286.800,62.840 286.798 C 52.378 286.795,50.752 286.581,48.814 284.950 C 46.241 282.786,46.382 287.903,46.496 200.384 L 46.600 121.000 47.439 119.400 C 49.216 116.012,50.882 115.628,63.400 115.724 C 72.982 115.797,73.479 115.839,75.291 116.731 " stroke="none" fill="#0c0c54" fill-rule="evenodd"></path></g></svg>